# xmcd
#
# Track frame offsets: 
#        150
#        82590
#        114030
#        151013
#
# Disc length: 2642 seconds
#
# Revision: 6
# Processed by: cddbd v1.5.2PL0 Copyright (c) Steve Scherf et al.
# Submitted via: ExactAudioCopyFreeDBPlugin 1.0
#
DISCID=130a5004
DTITLE=Valery Gergiev - Tchaikovsky Symphony No.6 in B minor, op.74 'P
DTITLE=athetique'
DYEAR=2005
DGENRE=Classical
TTITLE0=Symphony No.6, I. Adagio - Allegro non troppo
TTITLE1=Symphony No.6, II. Allegro con grazia
TTITLE2=Symphony No.6, III. Allegro molto vivace
TTITLE3=Symphony No.6, IV. Finale. Adagio lamentoso - Andante
EXTD=Symphony No.6 in B minor op.74 "Pathetique"\nWiener Philharmonike
EXTD=r\nLive recordning YEAR: 2004
EXTT0=
EXTT1=
EXTT2=
EXTT3=
PLAYORDER=
